<svg width="1172" height="1172" viewBox="0 0 1172 1172" fill="none" xmlns="http://www.w3.org/2000/svg">
<circle cx="586" cy="586" r="586" fill="#FEED01"/>
<rect width="1172" height="1172" fill="#FEED01"/>
<path d="M454.993 812.049C454.993 845.141 482.818 871.674 517.521 871.674C552.224 871.674 580.049 844.843 580.049 812.049C580.049 778.957 552.224 752.424 517.521 752.424C482.818 752.424 454.993 779.255 454.993 812.049ZM823.909 651.956L824.847 655.533C824.847 659.707 821.408 662.986 817.031 662.986L454.993 662.986L454.993 722.611L830.162 722.611C864.865 722.611 892.69 695.78 892.69 662.986C892.69 652.552 889.876 642.714 885.186 634.366L842.667 561.325L955.218 335.048L1017.75 335.048L1017.75 275.423L915.513 275.423L886.124 335.048L423.729 335.048C406.534 335.048 392.465 348.464 392.465 364.861C392.465 369.929 394.028 374.997 396.216 379.767L508.142 572.654C518.772 590.84 539.406 603.361 562.854 603.361L795.771 603.361L823.909 651.956ZM783.266 543.736L736.369 543.736L736.369 484.111L812.654 484.111L783.266 543.736ZM705.105 484.111L705.105 543.736L611.313 543.736L611.313 484.111L705.105 484.111ZM611.313 454.299L611.313 394.673L705.105 394.673L705.105 454.299L611.313 454.299ZM514.082 484.111L580.049 484.111L580.049 543.736L548.785 543.736L514.082 484.111ZM461.871 394.673L580.049 394.673L580.049 454.299L496.574 454.299L461.871 394.673ZM857.049 394.673L827.661 454.299L736.369 454.299L736.369 394.673L857.049 394.673Z" fill="#007D8C"/>
<path d="M599.428 323.168C599.428 291.089 577.424 265.084 550.28 265.084H420.535H297.518C270.374 265.084 248.37 291.089 248.37 323.168V887.414C248.37 919.493 270.374 945.498 297.518 945.498H550.28C577.424 945.498 599.428 919.493 599.428 887.414V323.168Z" fill="#FEED01" stroke="#007D8C" stroke-width="35"/>
<path d="M340.92 273.562C340.92 261.297 353.168 251.355 368.276 251.355H477.701C492.809 251.355 505.057 261.297 505.057 273.562V295.768C505.057 308.032 492.809 317.974 477.701 317.974H368.276C353.168 317.974 340.92 308.032 340.92 295.768V273.562Z" fill="#007D8C"/>
<path d="M340.762 854.223H509.269" stroke="#007D8C" stroke-width="35" stroke-linecap="round"/>
<path d="M517.7 653.4C517.5 655.8 517.2 658.3 516.8 660.9C516.4 663.5 515.7 665.9 514.7 668.1C513.7 670.5 512.4 672.3 510.8 673.5C508.6 675.5 506 676.6 503 676.8C500.2 677.8 497.5 678.1 494.9 677.7C492.3 677.3 489.9 676.6 487.7 675.6C484.9 673.8 482.8 671.7 481.4 669.3C480.2 666.7 479.3 664 478.7 661.2C478.1 658.4 477.8 655.5 477.8 652.5C477.8 649.5 477.8 646.7 477.8 644.1V620.7L477.5 574.8C477.5 571.6 477.5 569.1 477.5 567.3C477.5 565.5 477.5 563.9 477.5 562.5C477.5 560.9 477.4 559.2 477.2 557.4C477.2 555.4 477.2 552.6 477.2 549C477.2 548.4 477.2 547.4 477.2 546C477.4 544.4 477.3 540.3 476.9 533.7C469.1 546.7 462.6 557.2 457.4 565.2C452.4 573 448.1 579.1 444.5 583.5C441.1 587.7 438.1 590.6 435.5 592.2C432.9 593.6 430.2 594.4 427.4 594.6C425.8 594.8 424.2 594.5 422.6 593.7C421 592.9 419.4 591.9 417.8 590.7C416.4 589.5 415 588.3 413.6 587.1C412.4 585.7 411.4 584.4 410.6 583.2C405.8 577.2 400.4 570 394.4 561.6C388.4 553.2 382.2 543 375.8 531C375.8 531.2 375.7 534.5 375.5 540.9C375.5 547.3 375.5 555.3 375.5 564.9C375.5 574.3 375.4 584.5 375.2 595.5C375.2 606.3 375.1 616.4 374.9 625.8C374.9 635.2 374.8 643.1 374.6 649.5C374.4 655.7 374.2 658.8 374 658.8C374 662.2 373.2 665.4 371.6 668.4C370 671.2 367.8 673.5 365 675.3C362.4 677.1 359.3 678.1 355.7 678.3C352.1 678.5 348.2 677.5 344 675.3C341.4 673.7 339.4 671.4 338 668.4C336.8 665.4 336 662.6 335.6 660C335.4 657.2 335.2 654.5 335 651.9C335 649.3 335 646.6 335 643.8L335.3 620.4L335.6 574.2V534C335.6 516.6 336.2 499.5 337.4 482.7C337.4 480.5 337.6 478.5 338 476.7C338.6 474.7 339.3 472.8 340.1 471C341.7 467.8 343.8 465.4 346.4 463.8C349.4 462 352.6 461.1 356 461.1C357.4 461.1 358.7 461.2 359.9 461.4C361.3 461.4 362.6 461.5 363.8 461.7C367.8 462.5 371.2 464.9 374 468.9C377 472.7 379.8 476 382.4 478.8C384 480.6 385.7 482.8 387.5 485.4C389.3 488 391.1 490.7 392.9 493.5C394.7 496.3 396.4 499 398 501.6C399.6 504.2 401 506.5 402.2 508.5C407.4 516.9 412 524.6 416 531.6C420.2 538.6 424.1 544.6 427.7 549.6C428.3 549 429 548.2 429.8 547.2C430.6 546 431.4 544.8 432.2 543.6C433.2 542.2 434 540.9 434.6 539.7C435.4 538.5 436 537.5 436.4 536.7C438.4 533.5 440.4 530.4 442.4 527.4C444.4 524.2 446.5 520.9 448.7 517.5C451.1 513.9 453.5 510 455.9 505.8C458.5 501.6 461.5 496.8 464.9 491.4C466.3 489 468.1 486.1 470.3 482.7C472.5 479.3 475 476 477.8 472.8C480.6 469.6 483.5 466.9 486.5 464.7C489.7 462.3 492.9 461.1 496.1 461.1C497.7 461.1 499.1 461.2 500.3 461.4C501.5 461.4 502.7 461.5 503.9 461.7C506.3 461.9 508.6 463 510.8 465C512.4 466.6 513.6 468.3 514.4 470.1C515.2 472.7 515.7 474.9 515.9 476.7C516.1 478.1 516.2 479.4 516.2 480.6C516.4 481.8 516.5 483 516.5 484.2C516.5 495.4 516.6 506.5 516.8 517.5C517 528.5 517.1 539.6 517.1 550.8C517.1 564.4 517.1 578.4 517.1 592.8C517.3 607.2 517.4 621.2 517.4 634.8C517.4 637.6 517.5 640.6 517.7 643.8C517.9 647 517.9 650.2 517.7 653.4Z" fill="#007D8C"/>
<path d="M800.908 857.346L825.744 848.485L825.644 822.76L800.7 814.059C799.685 811.177 798.469 808.364 797.062 805.639L808.127 782.44L789.169 764.317L765.141 775.151C762.307 773.796 759.38 772.628 756.382 771.655L747.182 747.734L720.473 747.83L711.44 771.855C708.447 772.834 705.527 774.004 702.698 775.36L678.611 764.702L659.795 782.954L671.043 806.112C669.636 808.842 668.423 811.66 667.413 814.549L642.577 823.402L642.677 849.127L667.621 857.827C668.636 860.709 669.852 863.522 671.259 866.247L660.194 889.446L679.144 907.569L703.18 896.736C706.014 898.091 708.941 899.259 711.939 900.232L721.139 924.153L747.848 924.056L756.882 900.031C759.874 899.053 762.794 897.882 765.624 896.527L789.71 907.184L808.526 888.933L797.278 865.782C798.685 863.053 799.898 860.234 800.908 857.346ZM734.161 797.452C726.257 797.452 718.53 799.709 711.958 803.939C705.386 808.168 700.264 814.18 697.239 821.213C694.214 828.247 693.423 835.986 694.965 843.453C696.507 850.919 700.313 857.778 705.902 863.161C711.491 868.544 718.612 872.21 726.364 873.695C734.116 875.18 742.152 874.418 749.454 871.505C756.756 868.591 762.998 863.658 767.389 857.328C771.78 850.998 774.124 843.556 774.124 835.943C774.124 825.735 769.914 815.944 762.419 808.726C754.925 801.507 744.76 797.452 734.161 797.452ZM734.161 866.416C727.903 866.416 721.786 864.628 716.584 861.28C711.381 857.932 707.326 853.173 704.931 847.605C702.536 842.036 701.91 835.909 703.131 829.998C704.351 824.087 707.365 818.658 711.789 814.396C716.214 810.134 721.851 807.232 727.988 806.056C734.126 804.881 740.487 805.484 746.268 807.791C752.049 810.097 756.99 814.003 760.467 819.014C763.943 824.025 765.799 829.916 765.799 835.943C765.79 844.022 762.454 851.768 756.522 857.481C750.591 863.194 742.549 866.407 734.161 866.416Z" fill="#007D8C"/>
<path d="M650.97 843.497L674.198 851.596L675.489 855.221C676.388 857.762 677.462 860.243 678.703 862.647L680.501 866.095L670.185 887.706L680.892 897.93L703.272 887.85L706.852 889.534C709.346 890.73 711.922 891.762 714.562 892.622L718.358 893.833L726.934 916.118L742.003 916.061L750.413 893.696L754.176 892.445C756.819 891.581 759.4 890.55 761.902 889.358L765.474 887.634L787.903 897.561L798.519 887.257L788.053 865.702L789.818 862.254C791.056 859.848 792.124 857.364 793.015 854.82L794.281 851.163L817.402 842.904L817.36 828.389L794.131 820.29L792.841 816.666C791.941 814.124 790.868 811.644 789.627 809.24L787.829 805.792L798.144 784.18L787.446 773.956L765.041 784.044L761.461 782.352C758.97 781.155 756.397 780.124 753.759 779.265L749.963 778.054L741.387 755.769L726.318 755.825L717.909 778.19L714.145 779.441C711.502 780.305 708.921 781.337 706.419 782.529L702.847 784.253L680.418 774.325L669.802 784.63L680.276 806.185L678.511 809.633C677.273 812.039 676.205 814.522 675.314 817.066L674.049 820.723M800.908 857.346L825.744 848.485L825.644 822.76L800.7 814.059C799.685 811.177 798.469 808.364 797.062 805.639L808.127 782.44L789.169 764.317L765.141 775.151C762.307 773.796 759.38 772.628 756.382 771.655L747.182 747.734L720.473 747.83L711.44 771.855C708.447 772.834 705.527 774.004 702.698 775.36L678.611 764.702L659.795 782.954L671.043 806.112C669.636 808.842 668.423 811.66 667.413 814.549L642.577 823.402L642.677 849.127L667.621 857.827C668.636 860.709 669.852 863.522 671.259 866.247L660.194 889.446L679.144 907.569L703.18 896.736C706.014 898.091 708.941 899.259 711.939 900.232L721.139 924.153L747.848 924.056L756.882 900.031C759.874 899.053 762.794 897.882 765.624 896.527L789.71 907.184L808.526 888.933L797.278 865.782C798.685 863.053 799.898 860.234 800.908 857.346ZM734.161 797.452C726.257 797.452 718.53 799.709 711.958 803.939C705.386 808.168 700.264 814.18 697.239 821.213C694.214 828.247 693.423 835.986 694.965 843.453C696.507 850.919 700.313 857.778 705.902 863.161C711.491 868.544 718.612 872.21 726.364 873.695C734.116 875.18 742.152 874.418 749.454 871.505C756.756 868.591 762.998 863.658 767.389 857.328C771.78 850.998 774.124 843.556 774.124 835.943C774.124 825.735 769.914 815.944 762.419 808.726C754.925 801.507 744.76 797.452 734.161 797.452ZM734.161 866.416C727.903 866.416 721.786 864.628 716.584 861.28C711.381 857.932 707.326 853.173 704.931 847.605C702.536 842.036 701.91 835.909 703.131 829.998C704.351 824.087 707.365 818.658 711.789 814.396C716.214 810.134 721.851 807.232 727.988 806.056C734.126 804.881 740.487 805.484 746.268 807.791C752.049 810.097 756.99 814.003 760.467 819.014C763.943 824.025 765.799 829.916 765.799 835.943C765.79 844.022 762.454 851.768 756.522 857.481C750.591 863.194 742.549 866.407 734.161 866.416Z" stroke="#007D8C" stroke-width="4"/>
<circle cx="732.715" cy="836.907" r="41.9356" fill="#FEED01"/>
</svg>
