<svg width="929" height="929" viewBox="0 0 929 929" fill="none" xmlns="http://www.w3.org/2000/svg">
<rect width="929" height="929" fill="#FEED01"/>
<path d="M701.929 431.759L701.898 431.702L686.148 403.177L686.005 402.918H685.71H555.335C542.4 402.918 531.014 395.674 525.148 385.151L701.929 431.759ZM701.929 431.759L701.945 431.822L702.47 433.922L702.485 433.982V434.043C702.485 436.769 700.336 438.918 697.61 438.918H495.46V472.918H704.96C724.107 472.918 739.46 457.394 739.46 438.418C739.46 432.38 737.908 426.687 735.321 421.858C735.321 421.857 735.32 421.855 735.319 421.854L711.523 378.986L711.398 378.761L711.508 378.529L774.508 245.704L774.644 245.418H774.96H809.46V211.418H753.053L736.738 246.131L736.603 246.418H736.285H477.46C468.111 246.418 460.46 254.069 460.46 263.418C460.46 266.291 461.304 269.187 462.509 271.946L525.147 385.15L701.929 431.759ZM679.163 368.631L679.028 368.918H678.71H652.46H651.96V368.418V333.418V332.918H652.46H695.16H695.948L695.613 333.631L679.163 368.631ZM634.96 332.918H635.46V333.418V368.418V368.918H634.96H582.46H581.96V368.418V333.418V332.918H582.46H634.96ZM582.46 316.418H581.96V315.918V280.918V280.418H582.46H634.96H635.46V280.918V315.918V316.418H634.96H582.46ZM527.598 333.661L527.186 332.918H528.035H564.96H565.46V333.418V368.418V368.918H564.96H547.46H547.166L547.023 368.661L527.598 333.661ZM498.373 281.161L497.961 280.418H498.81H564.96H565.46V280.918V315.918V316.418H564.96H518.235H517.941L517.798 316.161L498.373 281.161ZM720.01 280.418H720.798L720.463 281.131L704.013 316.131L703.878 316.418H703.56H652.46H651.96V315.918V280.918V280.418H652.46H720.01ZM495.46 525.918C495.46 545.067 510.811 560.418 529.96 560.418C549.107 560.418 564.46 544.894 564.46 525.918C564.46 506.769 549.109 491.418 529.96 491.418C510.813 491.418 495.46 506.943 495.46 525.918ZM739.46 525.918C739.46 506.769 724.109 491.418 704.96 491.418C685.811 491.418 670.46 506.769 670.46 525.918C670.46 545.067 685.811 560.418 704.96 560.418C724.107 560.418 739.46 544.894 739.46 525.918Z" fill="#007D8C" stroke="black"/>
<rect x="104.72" y="245.276" width="339.563" height="699" rx="47.2022" transform="rotate(-30 104.72 245.276)" fill="#007D8C" stroke="black"/>
<rect x="110.569" y="246.487" width="330.99" height="691.054" rx="50" transform="rotate(-30 110.569 246.487)" fill="#007D8C"/>
<rect x="123.199" y="248.233" width="311.39" height="674.574" rx="41" transform="rotate(-30 123.199 248.233)" fill="#E4E4E4"/>
<rect x="519.984" y="780.957" width="156.55" height="5.59105" rx="2.79553" transform="rotate(-30 519.984 780.957)" fill="#007D8C"/>
<path d="M197.293 204.365L319.312 133.917L325.835 145.216C330.317 152.979 327.657 162.905 319.894 167.387L225.988 221.604C218.225 226.086 208.298 223.426 203.817 215.663L197.293 204.365Z" fill="#007D8C"/>
<rect x="238.195" y="190.879" width="54.9824" height="5.74443" rx="2.12684" transform="rotate(-30 238.195 190.879)" fill="#E4E4E4"/>
<circle cx="223.731" cy="202.937" r="6.56506" transform="rotate(-30 223.731 202.937)" fill="#E4E4E4"/>
<mask id="path-10-inside-1_17_5" fill="white">
<path d="M480.744 411.804L499.389 389.863L485.245 365.583L456.906 370.971C454.372 368.798 451.686 366.801 448.867 364.992L446.66 337.006L418.835 330.212L402.031 353.578C398.611 353.844 395.206 354.337 391.839 355.053L370.075 337.448L344.871 352.12L349.45 379.779C347.155 382.338 345.033 385.04 343.097 387.867L314.501 390.935L306.676 418.473L329.96 434.24C330.12 437.59 330.513 440.918 331.135 444.201L312.485 466.135L326.629 490.416L354.969 485.028C357.503 487.2 360.188 489.197 363.008 491.006L365.215 518.993L393.031 525.791L409.844 502.42C413.264 502.155 416.669 501.662 420.036 500.945L441.8 518.551L467.003 503.878L462.424 476.219C464.719 473.66 466.842 470.958 468.777 468.132L497.374 465.063L505.199 437.525L481.919 421.766C481.759 418.416 481.366 415.088 480.744 411.804ZM494.82 441.404L490.41 456.947L463.778 459.801L461.342 463.382C459.627 465.875 457.75 468.26 455.723 470.521L452.847 473.759L457.11 499.506L442.891 507.786L422.611 491.388L418.359 492.315C415.394 492.942 412.395 493.373 409.383 493.603L405.078 493.965L389.42 515.718L373.712 511.892L371.663 485.817L368.08 483.537C365.593 481.94 363.223 480.18 360.985 478.267L357.785 475.543L331.396 480.563L323.43 466.856L340.782 446.42L339.982 442.27C339.435 439.376 339.089 436.444 338.945 433.492L338.731 429.267L317.054 414.595L321.464 399.052L348.096 396.197L350.532 392.616C352.247 390.123 354.124 387.738 356.152 385.478L359.027 382.24L354.764 356.492L368.984 348.212L389.264 364.611L393.515 363.684C396.478 363.057 399.475 362.628 402.484 362.399L406.793 362.046L422.47 340.271L438.171 344.102L440.219 370.177L443.803 372.457C446.289 374.053 448.659 375.814 450.897 377.727L454.097 380.451L480.486 375.431L488.453 389.138L471.1 409.574L471.901 413.724C472.447 416.617 472.794 419.55 472.937 422.501L473.152 426.727L494.82 441.404ZM384.915 391.588C377.441 395.903 371.368 402.257 367.463 409.846C363.558 417.435 361.998 425.918 362.979 434.223C363.96 442.527 367.438 450.28 372.974 456.502C378.51 462.723 385.855 467.133 394.08 469.174C402.305 471.215 411.041 470.795 419.183 467.967C427.325 465.14 434.507 460.032 439.821 453.289C445.135 446.547 448.343 438.472 449.038 430.087C449.733 421.702 447.885 413.382 443.727 406.181C438.152 396.524 428.824 389.561 417.794 386.825C406.765 384.088 394.938 385.801 384.915 391.588ZM422.58 456.825C416.663 460.241 409.902 461.89 403.154 461.563C396.405 461.236 389.972 458.948 384.666 454.988C379.361 451.028 375.422 445.575 373.348 439.316C371.274 433.058 371.158 426.277 373.015 419.83C374.871 413.383 378.617 407.56 383.778 403.097C388.939 398.634 395.284 395.732 402.01 394.758C408.737 393.783 415.542 394.78 421.566 397.623C427.591 400.465 432.563 405.025 435.855 410.726C440.259 418.374 441.334 427.522 438.846 436.165C436.357 444.807 430.507 452.237 422.58 456.825Z"/>
</mask>
<path d="M480.744 411.804L499.389 389.863L485.245 365.583L456.906 370.971C454.372 368.798 451.686 366.801 448.867 364.992L446.66 337.006L418.835 330.212L402.031 353.578C398.611 353.844 395.206 354.337 391.839 355.053L370.075 337.448L344.871 352.12L349.45 379.779C347.155 382.338 345.033 385.04 343.097 387.867L314.501 390.935L306.676 418.473L329.96 434.24C330.12 437.59 330.513 440.918 331.135 444.201L312.485 466.135L326.629 490.416L354.969 485.028C357.503 487.2 360.188 489.197 363.008 491.006L365.215 518.993L393.031 525.791L409.844 502.42C413.264 502.155 416.669 501.662 420.036 500.945L441.8 518.551L467.003 503.878L462.424 476.219C464.719 473.66 466.842 470.958 468.777 468.132L497.374 465.063L505.199 437.525L481.919 421.766C481.759 418.416 481.366 415.088 480.744 411.804ZM494.82 441.404L490.41 456.947L463.778 459.801L461.342 463.382C459.627 465.875 457.75 468.26 455.723 470.521L452.847 473.759L457.11 499.506L442.891 507.786L422.611 491.388L418.359 492.315C415.394 492.942 412.395 493.373 409.383 493.603L405.078 493.965L389.42 515.718L373.712 511.892L371.663 485.817L368.08 483.537C365.593 481.94 363.223 480.18 360.985 478.267L357.785 475.543L331.396 480.563L323.43 466.856L340.782 446.42L339.982 442.27C339.435 439.376 339.089 436.444 338.945 433.492L338.731 429.267L317.054 414.595L321.464 399.052L348.096 396.197L350.532 392.616C352.247 390.123 354.124 387.738 356.152 385.478L359.027 382.24L354.764 356.492L368.984 348.212L389.264 364.611L393.515 363.684C396.478 363.057 399.475 362.628 402.484 362.399L406.793 362.046L422.47 340.271L438.171 344.102L440.219 370.177L443.803 372.457C446.289 374.053 448.659 375.814 450.897 377.727L454.097 380.451L480.486 375.431L488.453 389.138L471.1 409.574L471.901 413.724C472.447 416.617 472.794 419.55 472.937 422.501L473.152 426.727L494.82 441.404ZM384.915 391.588C377.441 395.903 371.368 402.257 367.463 409.846C363.558 417.435 361.998 425.918 362.979 434.223C363.96 442.527 367.438 450.28 372.974 456.502C378.51 462.723 385.855 467.133 394.08 469.174C402.305 471.215 411.041 470.795 419.183 467.967C427.325 465.14 434.507 460.032 439.821 453.289C445.135 446.547 448.343 438.472 449.038 430.087C449.733 421.702 447.885 413.382 443.727 406.181C438.152 396.524 428.824 389.561 417.794 386.825C406.765 384.088 394.938 385.801 384.915 391.588ZM422.58 456.825C416.663 460.241 409.902 461.89 403.154 461.563C396.405 461.236 389.972 458.948 384.666 454.988C379.361 451.028 375.422 445.575 373.348 439.316C371.274 433.058 371.158 426.277 373.015 419.83C374.871 413.383 378.617 407.56 383.778 403.097C388.939 398.634 395.284 395.732 402.01 394.758C408.737 393.783 415.542 394.78 421.566 397.623C427.591 400.465 432.563 405.025 435.855 410.726C440.259 418.374 441.334 427.522 438.846 436.165C436.357 444.807 430.507 452.237 422.58 456.825Z" fill="#007D8C" stroke="black" stroke-width="2" mask="url(#path-10-inside-1_17_5)"/>
</svg>
