<svg width="929" height="929" viewBox="0 0 929 929" fill="none" xmlns="http://www.w3.org/2000/svg">
<rect width="929" height="929" fill="#3F51B5"/>
<path d="M494.96 525.918C494.96 545.343 510.535 560.918 529.96 560.918C549.385 560.918 564.96 545.168 564.96 525.918C564.96 506.493 549.385 490.918 529.96 490.918C510.535 490.918 494.96 506.668 494.96 525.918ZM704.96 490.918C724.385 490.918 739.96 506.493 739.96 525.918C739.96 545.168 724.385 560.918 704.96 560.918C685.535 560.918 669.96 545.343 669.96 525.918C669.96 506.493 685.535 490.918 704.96 490.918ZM701.46 431.943L701.985 434.043C701.985 436.493 700.06 438.418 697.61 438.418H494.96V473.418H704.96C724.385 473.418 739.96 457.668 739.96 438.418C739.96 432.293 738.385 426.518 735.76 421.618L711.96 378.743L774.96 245.918H809.96V210.918H752.735L736.285 245.918H477.46C467.835 245.918 459.96 253.793 459.96 263.418C459.96 266.393 460.835 269.368 462.06 272.168L524.71 385.393C530.66 396.068 542.21 403.418 555.335 403.418H685.71L701.46 431.943ZM678.71 368.418H652.46V333.418H695.16L678.71 368.418ZM634.96 333.418V368.418H582.46V333.418H634.96ZM582.46 315.918V280.918H634.96V315.918H582.46ZM528.035 333.418H564.96V368.418H547.46L528.035 333.418ZM498.81 280.918H564.96V315.918H518.235L498.81 280.918ZM720.01 280.918L703.56 315.918H652.46V280.918H720.01Z" fill="#FEED01"/>
<rect x="104.037" y="245.093" width="340.563" height="700" rx="47.7022" transform="rotate(-30 104.037 245.093)" fill="#FEED01"/>
<rect x="110.569" y="246.487" width="330.99" height="691.054" rx="50" transform="rotate(-30 110.569 246.487)" fill="#FEED01"/>
<rect x="123.199" y="248.233" width="311.39" height="674.574" rx="41" transform="rotate(-30 123.199 248.233)" fill="#3F51B5"/>
<rect x="519.984" y="780.957" width="156.55" height="5.59105" rx="2.79553" transform="rotate(-30 519.984 780.957)" fill="#FEED01"/>
<path d="M197.293 204.365L319.312 133.917L325.835 145.216C330.317 152.979 327.657 162.905 319.894 167.387L225.988 221.604C218.225 226.086 208.298 223.426 203.817 215.663L197.293 204.365Z" fill="#FEED01"/>
<rect x="238.195" y="190.879" width="54.9824" height="5.74443" rx="2.12684" transform="rotate(-30 238.195 190.879)" fill="#3F51B5"/>
<circle cx="223.731" cy="202.937" r="6.56506" transform="rotate(-30 223.731 202.937)" fill="#3F51B5"/>
<path d="M480.744 411.805L499.389 389.863L485.245 365.583L456.906 370.971C454.372 368.799 451.686 366.801 448.867 364.992L446.66 337.006L418.835 330.212L402.031 353.579C398.611 353.844 395.206 354.337 391.839 355.053L370.075 337.448L344.871 352.12L349.45 379.779C347.155 382.338 345.033 385.04 343.097 387.867L314.501 390.935L306.676 418.473L329.96 434.24C330.12 437.59 330.513 440.918 331.135 444.202L312.485 466.135L326.629 490.416L354.969 485.028C357.503 487.2 360.188 489.197 363.008 491.006L365.215 518.993L393.031 525.791L409.844 502.42C413.264 502.155 416.669 501.662 420.036 500.946L441.8 518.551L467.003 503.878L462.424 476.22C464.719 473.661 466.842 470.959 468.777 468.132L497.374 465.063L505.199 437.525L481.919 421.767C481.759 418.416 481.366 415.088 480.744 411.805ZM494.82 441.404L490.41 456.947L463.778 459.801L461.342 463.382C459.627 465.876 457.75 468.26 455.723 470.521L452.847 473.759L457.11 499.506L442.891 507.786L422.611 491.388L418.359 492.315C415.394 492.943 412.395 493.373 409.383 493.604L405.078 493.965L389.42 515.718L373.712 511.892L371.663 485.817L368.08 483.537C365.593 481.94 363.223 480.18 360.985 478.267L357.785 475.543L331.396 480.563L323.43 466.856L340.782 446.42L339.982 442.27C339.435 439.377 339.089 436.444 338.945 433.492L338.731 429.267L317.054 414.595L321.464 399.052L348.096 396.197L350.532 392.616C352.247 390.123 354.124 387.738 356.152 385.478L359.027 382.24L354.764 356.492L368.984 348.212L389.264 364.611L393.515 363.684C396.478 363.057 399.475 362.628 402.484 362.4L406.793 362.046L422.47 340.271L438.171 344.102L440.219 370.177L443.803 372.457C446.289 374.054 448.659 375.814 450.897 377.727L454.097 380.451L480.486 375.431L488.453 389.138L471.1 409.574L471.901 413.724C472.447 416.617 472.794 419.55 472.937 422.502L473.152 426.727L494.82 441.404ZM384.915 391.588C377.441 395.903 371.368 402.257 367.463 409.846C363.558 417.435 361.998 425.918 362.979 434.223C363.96 442.527 367.438 450.28 372.974 456.502C378.51 462.723 385.855 467.133 394.08 469.174C402.305 471.215 411.041 470.795 419.183 467.967C427.325 465.14 434.507 460.032 439.821 453.289C445.135 446.547 448.343 438.472 449.038 430.087C449.733 421.702 447.885 413.383 443.727 406.181C438.152 396.524 428.824 389.562 417.794 386.825C406.765 384.088 394.938 385.801 384.915 391.588ZM422.58 456.825C416.663 460.241 409.902 461.89 403.154 461.563C396.405 461.236 389.972 458.948 384.666 454.988C379.361 451.028 375.422 445.575 373.348 439.316C371.274 433.058 371.158 426.277 373.015 419.83C374.871 413.383 378.617 407.56 383.778 403.097C388.939 398.634 395.284 395.732 402.01 394.758C408.737 393.783 415.542 394.78 421.566 397.623C427.591 400.465 432.563 405.025 435.854 410.727C440.259 418.374 441.334 427.522 438.846 436.165C436.357 444.807 430.507 452.237 422.58 456.825Z" fill="#FEED01"/>
</svg>
