<svg width="929" height="929" viewBox="0 0 929 929" fill="none" xmlns="http://www.w3.org/2000/svg">
<rect width="929" height="929" fill="#FEED01"/>
<path d="M494.96 524.918C494.96 544.343 510.535 559.918 529.96 559.918C549.385 559.918 564.96 544.168 564.96 524.918C564.96 505.493 549.385 489.918 529.96 489.918C510.535 489.918 494.96 505.668 494.96 524.918ZM704.96 489.918C724.385 489.918 739.96 505.493 739.96 524.918C739.96 544.168 724.385 559.918 704.96 559.918C685.535 559.918 669.96 544.343 669.96 524.918C669.96 505.493 685.535 489.918 704.96 489.918ZM701.46 430.943L701.985 433.043C701.985 435.493 700.06 437.418 697.61 437.418H494.96V472.418H704.96C724.385 472.418 739.96 456.668 739.96 437.418C739.96 431.293 738.385 425.518 735.76 420.618L711.96 377.743L774.96 244.918H809.96V209.918H752.735L736.285 244.918H477.46C467.835 244.918 459.96 252.793 459.96 262.418C459.96 265.393 460.835 268.368 462.06 271.168L524.71 384.393C530.66 395.068 542.21 402.418 555.335 402.418H685.71L701.46 430.943ZM678.71 367.418H652.46V332.418H695.16L678.71 367.418ZM634.96 332.418V367.418H582.46V332.418H634.96ZM582.46 314.918V279.918H634.96V314.918H582.46ZM528.035 332.418H564.96V367.418H547.46L528.035 332.418ZM498.81 279.918H564.96V314.918H518.235L498.81 279.918ZM720.01 279.918L703.56 314.918H652.46V279.918H720.01Z" fill="#007D8C"/>
<path d="M409 130.76C392.96 102.979 360.901 91.4597 337.394 105.032L225.031 169.904L118.496 231.412C94.9889 244.984 88.9352 278.508 104.975 306.289L387.098 794.94C403.137 822.721 435.196 834.24 458.703 820.668L677.601 694.287C701.108 680.715 707.162 647.192 691.122 619.411L409 130.76Z" fill="#E4E4E4" stroke="#007D8C" stroke-width="35"/>
<path d="M160.321 217.053C154.189 206.432 159.825 191.698 172.909 184.144L267.674 129.431C280.758 121.877 296.336 124.363 302.468 134.985L313.571 154.216C319.704 164.837 314.068 179.571 300.984 187.125L206.219 241.838C193.135 249.392 177.557 246.905 171.425 236.284L160.321 217.053Z" fill="#007D8C"/>
<path d="M473.11 756.462L619.042 672.208" stroke="#007D8C" stroke-width="25" stroke-linecap="round"/>
<mask id="path-6-outside-1_17_221" maskUnits="userSpaceOnUse" x="250.479" y="305.844" width="277.205" height="280.133" fill="black">
<rect fill="white" x="250.479" y="305.844" width="277.205" height="280.133"/>
<path d="M446.073 394.658L451.249 366.334L426.86 352.379L405.011 371.214C401.731 370.6 398.406 370.213 395.06 370.056L379.156 346.923L351.662 354.952L348.792 383.59C345.963 385.53 343.26 387.659 340.703 389.963L313.052 385.598L298.561 410.907L316.356 432.57C315.648 435.934 315.161 439.335 314.898 442.751L291.667 459.707L298.659 487.468L326.708 489.48C328.521 492.301 330.525 494.987 332.706 497.519L327.521 525.84L351.911 539.795L373.76 520.959C377.04 521.573 380.365 521.96 383.711 522.117L399.615 545.251L427.104 537.23L429.979 508.584C432.808 506.644 435.511 504.515 438.068 502.211L465.719 506.576L480.21 481.267L462.415 459.603C463.123 456.239 463.61 452.838 463.873 449.423L487.104 432.467L480.112 404.706L452.071 402.698C450.257 399.877 448.253 397.191 446.073 394.658ZM473.063 413.254L477.015 428.92L455.378 444.707L455.059 449.027C454.821 452.043 454.387 455.047 453.761 458.019L452.89 462.261L469.456 482.427L461.282 496.708L435.519 492.646L432.301 495.575C430.047 497.601 427.665 499.473 425.172 501.179L421.624 503.645L418.941 530.312L403.424 534.853L388.612 513.295L384.369 513.113C381.417 512.973 378.484 512.634 375.59 512.096L371.456 511.337L351.113 528.879L337.36 520.991L342.17 494.617L339.401 491.423C337.481 489.191 335.715 486.825 334.115 484.34L331.817 480.788L305.708 478.92L301.756 463.254L323.393 447.466L323.712 443.147C323.95 440.13 324.384 437.126 325.009 434.155L325.881 429.913L309.315 409.746L317.489 395.466L343.252 399.528L346.47 396.599C348.722 394.574 351.103 392.705 353.595 391.002L357.15 388.541L359.839 361.845L375.352 357.313L390.163 378.87L394.407 379.053C397.358 379.192 400.291 379.532 403.186 380.07L407.319 380.829L427.662 363.287L441.415 371.174L436.606 397.549L439.374 400.742C441.294 402.975 443.06 405.341 444.66 407.825L446.959 411.378L473.063 413.254ZM352.974 425.065C348.659 432.539 346.576 441.078 346.989 449.603C347.402 458.127 350.292 466.254 355.294 472.956C360.296 479.657 367.185 484.632 375.09 487.252C382.995 489.872 391.561 490.018 399.704 487.673C407.848 485.328 415.203 480.597 420.841 474.077C426.478 467.558 430.144 459.543 431.375 451.047C432.605 442.551 431.346 433.954 427.756 426.345C424.165 418.735 418.405 412.454 411.204 408.297C401.547 402.721 389.987 401.356 379.067 404.5C368.146 407.645 358.761 415.042 352.974 425.065ZM418.211 462.729C414.795 468.646 409.765 473.454 403.757 476.546C397.749 479.637 391.033 480.872 384.459 480.095C377.884 479.319 371.746 476.565 366.821 472.182C361.896 467.8 358.405 461.985 356.789 455.473C355.173 448.962 355.506 442.046 357.744 435.601C359.982 429.155 364.026 423.469 369.364 419.262C374.702 415.055 381.094 412.516 387.733 411.965C394.371 411.415 400.957 412.878 406.658 416.169C414.296 420.59 419.802 427.975 421.968 436.704C424.134 445.433 422.783 454.793 418.211 462.729Z"/>
</mask>
<path d="M446.073 394.658L451.249 366.334L426.86 352.379L405.011 371.214C401.731 370.6 398.406 370.213 395.06 370.056L379.156 346.923L351.662 354.952L348.792 383.59C345.963 385.53 343.26 387.659 340.703 389.963L313.052 385.598L298.561 410.907L316.356 432.57C315.648 435.934 315.161 439.335 314.898 442.751L291.667 459.707L298.659 487.468L326.708 489.48C328.521 492.301 330.525 494.987 332.706 497.519L327.521 525.84L351.911 539.795L373.76 520.959C377.04 521.573 380.365 521.96 383.711 522.117L399.615 545.251L427.104 537.23L429.979 508.584C432.808 506.644 435.511 504.515 438.068 502.211L465.719 506.576L480.21 481.267L462.415 459.603C463.123 456.239 463.61 452.838 463.873 449.423L487.104 432.467L480.112 404.706L452.071 402.698C450.257 399.877 448.253 397.191 446.073 394.658ZM473.063 413.254L477.015 428.92L455.378 444.707L455.059 449.027C454.821 452.043 454.387 455.047 453.761 458.019L452.89 462.261L469.456 482.427L461.282 496.708L435.519 492.646L432.301 495.575C430.047 497.601 427.665 499.473 425.172 501.179L421.624 503.645L418.941 530.312L403.424 534.853L388.612 513.295L384.369 513.113C381.417 512.973 378.484 512.634 375.59 512.096L371.456 511.337L351.113 528.879L337.36 520.991L342.17 494.617L339.401 491.423C337.481 489.191 335.715 486.825 334.115 484.34L331.817 480.788L305.708 478.92L301.756 463.254L323.393 447.466L323.712 443.147C323.95 440.13 324.384 437.126 325.009 434.155L325.881 429.913L309.315 409.746L317.489 395.466L343.252 399.528L346.47 396.599C348.722 394.574 351.103 392.705 353.595 391.002L357.15 388.541L359.839 361.845L375.352 357.313L390.163 378.87L394.407 379.053C397.358 379.192 400.291 379.532 403.186 380.07L407.319 380.829L427.662 363.287L441.415 371.174L436.606 397.549L439.374 400.742C441.294 402.975 443.06 405.341 444.66 407.825L446.959 411.378L473.063 413.254ZM352.974 425.065C348.659 432.539 346.576 441.078 346.989 449.603C347.402 458.127 350.292 466.254 355.294 472.956C360.296 479.657 367.185 484.632 375.09 487.252C382.995 489.872 391.561 490.018 399.704 487.673C407.848 485.328 415.203 480.597 420.841 474.077C426.478 467.558 430.144 459.543 431.375 451.047C432.605 442.551 431.346 433.954 427.756 426.345C424.165 418.735 418.405 412.454 411.204 408.297C401.547 402.721 389.987 401.356 379.067 404.5C368.146 407.645 358.761 415.042 352.974 425.065ZM418.211 462.729C414.795 468.646 409.765 473.454 403.757 476.546C397.749 479.637 391.033 480.872 384.459 480.095C377.884 479.319 371.746 476.565 366.821 472.182C361.896 467.8 358.405 461.985 356.789 455.473C355.173 448.962 355.506 442.046 357.744 435.601C359.982 429.155 364.026 423.469 369.364 419.262C374.702 415.055 381.094 412.516 387.733 411.965C394.371 411.415 400.957 412.878 406.658 416.169C414.296 420.59 419.802 427.975 421.968 436.704C424.134 445.433 422.783 454.793 418.211 462.729Z" fill="#007D8C"/>
<path d="M446.073 394.658L451.249 366.334L426.86 352.379L405.011 371.214C401.731 370.6 398.406 370.213 395.06 370.056L379.156 346.923L351.662 354.952L348.792 383.59C345.963 385.53 343.26 387.659 340.703 389.963L313.052 385.598L298.561 410.907L316.356 432.57C315.648 435.934 315.161 439.335 314.898 442.751L291.667 459.707L298.659 487.468L326.708 489.48C328.521 492.301 330.525 494.987 332.706 497.519L327.521 525.84L351.911 539.795L373.76 520.959C377.04 521.573 380.365 521.96 383.711 522.117L399.615 545.251L427.104 537.23L429.979 508.584C432.808 506.644 435.511 504.515 438.068 502.211L465.719 506.576L480.21 481.267L462.415 459.603C463.123 456.239 463.61 452.838 463.873 449.423L487.104 432.467L480.112 404.706L452.071 402.698C450.257 399.877 448.253 397.191 446.073 394.658ZM473.063 413.254L477.015 428.92L455.378 444.707L455.059 449.027C454.821 452.043 454.387 455.047 453.761 458.019L452.89 462.261L469.456 482.427L461.282 496.708L435.519 492.646L432.301 495.575C430.047 497.601 427.665 499.473 425.172 501.179L421.624 503.645L418.941 530.312L403.424 534.853L388.612 513.295L384.369 513.113C381.417 512.973 378.484 512.634 375.59 512.096L371.456 511.337L351.113 528.879L337.36 520.991L342.17 494.617L339.401 491.423C337.481 489.191 335.715 486.825 334.115 484.34L331.817 480.788L305.708 478.92L301.756 463.254L323.393 447.466L323.712 443.147C323.95 440.13 324.384 437.126 325.009 434.155L325.881 429.913L309.315 409.746L317.489 395.466L343.252 399.528L346.47 396.599C348.722 394.574 351.103 392.705 353.595 391.002L357.15 388.541L359.839 361.845L375.352 357.313L390.163 378.87L394.407 379.053C397.358 379.192 400.291 379.532 403.186 380.07L407.319 380.829L427.662 363.287L441.415 371.174L436.606 397.549L439.374 400.742C441.294 402.975 443.06 405.341 444.66 407.825L446.959 411.378L473.063 413.254ZM352.974 425.065C348.659 432.539 346.576 441.078 346.989 449.603C347.402 458.127 350.292 466.254 355.294 472.956C360.296 479.657 367.185 484.632 375.09 487.252C382.995 489.872 391.561 490.018 399.704 487.673C407.848 485.328 415.203 480.597 420.841 474.077C426.478 467.558 430.144 459.543 431.375 451.047C432.605 442.551 431.346 433.954 427.756 426.345C424.165 418.735 418.405 412.454 411.204 408.297C401.547 402.721 389.987 401.356 379.067 404.5C368.146 407.645 358.761 415.042 352.974 425.065ZM418.211 462.729C414.795 468.646 409.765 473.454 403.757 476.546C397.749 479.637 391.033 480.872 384.459 480.095C377.884 479.319 371.746 476.565 366.821 472.182C361.896 467.8 358.405 461.985 356.789 455.473C355.173 448.962 355.506 442.046 357.744 435.601C359.982 429.155 364.026 423.469 369.364 419.262C374.702 415.055 381.094 412.516 387.733 411.965C394.371 411.415 400.957 412.878 406.658 416.169C414.296 420.59 419.802 427.975 421.968 436.704C424.134 445.433 422.783 454.793 418.211 462.729Z" stroke="#007D8C" stroke-width="6" mask="url(#path-6-outside-1_17_221)"/>
</svg>
