<svg width="3684" height="929" viewBox="0 0 3684 929" fill="none" xmlns="http://www.w3.org/2000/svg">
<rect width="3684" height="929" fill="#FEED01"/>
<path d="M701.898 431.702L701.929 431.759L701.945 431.822L702.47 433.922L702.485 433.982V434.043C702.485 436.769 700.336 438.918 697.61 438.918H495.46V472.918H704.96C724.107 472.918 739.46 457.394 739.46 438.418C739.46 432.38 737.908 426.687 735.321 421.858C735.321 421.857 735.32 421.855 735.319 421.854L711.523 378.986L711.398 378.761L711.508 378.529L774.508 245.704L774.644 245.418H774.96H809.46V211.418H753.053L736.738 246.131L736.603 246.418H736.285H477.46C468.111 246.418 460.46 254.069 460.46 263.418C460.46 266.291 461.304 269.187 462.509 271.947L525.147 385.15C531.013 395.674 542.4 402.918 555.335 402.918H685.71H686.005L686.148 403.177L701.898 431.702ZM679.163 368.631L679.028 368.918H678.71H652.46H651.96V368.418V333.418V332.918H652.46H695.16H695.948L695.613 333.631L679.163 368.631ZM634.96 332.918H635.46V333.418V368.418V368.918H634.96H582.46H581.96V368.418V333.418V332.918H582.46H634.96ZM582.46 316.418H581.96V315.918V280.918V280.418H582.46H634.96H635.46V280.918V315.918V316.418H634.96H582.46ZM527.598 333.661L527.186 332.918H528.035H564.96H565.46V333.418V368.418V368.918H564.96H547.46H547.166L547.023 368.661L527.598 333.661ZM498.373 281.161L497.961 280.418H498.81H564.96H565.46V280.918V315.918V316.418H564.96H518.235H517.941L517.798 316.161L498.373 281.161ZM720.01 280.418H720.798L720.463 281.131L704.013 316.131L703.878 316.418H703.56H652.46H651.96V315.918V280.918V280.418H652.46H720.01ZM495.46 525.918C495.46 545.067 510.811 560.418 529.96 560.418C549.107 560.418 564.46 544.894 564.46 525.918C564.46 506.769 549.109 491.418 529.96 491.418C510.813 491.418 495.46 506.943 495.46 525.918ZM739.46 525.918C739.46 506.769 724.109 491.418 704.96 491.418C685.811 491.418 670.46 506.769 670.46 525.918C670.46 545.067 685.811 560.418 704.96 560.418C724.107 560.418 739.46 544.894 739.46 525.918Z" fill="#3F51B5" stroke="black"/>
<rect x="104.72" y="245.276" width="339.563" height="699" rx="47.2022" transform="rotate(-30 104.72 245.276)" fill="#3F51B5" stroke="black"/>
<rect x="110.569" y="246.487" width="330.99" height="691.054" rx="50" transform="rotate(-30 110.569 246.487)" fill="#3F51B5"/>
<rect x="123.199" y="248.233" width="311.39" height="674.574" rx="41" transform="rotate(-30 123.199 248.233)" fill="#E4E4E4"/>
<rect x="519.984" y="780.957" width="156.55" height="5.59105" rx="2.79553" transform="rotate(-30 519.984 780.957)" fill="#3F51B5"/>
<path d="M197.293 204.365L319.312 133.917L325.835 145.216C330.317 152.979 327.657 162.905 319.894 167.387L225.988 221.604C218.225 226.086 208.298 223.426 203.817 215.663L197.293 204.365Z" fill="#3F51B5"/>
<rect x="238.195" y="190.879" width="54.9824" height="5.74443" rx="2.12684" transform="rotate(-30 238.195 190.879)" fill="#E4E4E4"/>
<circle cx="223.731" cy="202.937" r="6.56506" transform="rotate(-30 223.731 202.937)" fill="#E4E4E4"/>
<mask id="path-10-inside-1_17_5" fill="white">
<path d="M480.744 411.804L499.389 389.863L485.245 365.583L456.906 370.971C454.372 368.798 451.686 366.801 448.867 364.992L446.66 337.006L418.835 330.212L402.031 353.578C398.611 353.844 395.206 354.337 391.839 355.053L370.075 337.448L344.871 352.12L349.45 379.779C347.155 382.338 345.033 385.04 343.097 387.867L314.501 390.935L306.676 418.473L329.96 434.24C330.12 437.59 330.513 440.918 331.135 444.201L312.485 466.135L326.629 490.416L354.969 485.028C357.503 487.2 360.188 489.197 363.008 491.006L365.215 518.993L393.031 525.791L409.844 502.42C413.264 502.155 416.669 501.662 420.036 500.945L441.8 518.551L467.003 503.878L462.424 476.219C464.719 473.66 466.842 470.958 468.777 468.132L497.374 465.063L505.199 437.525L481.919 421.766C481.759 418.416 481.366 415.088 480.744 411.804ZM494.82 441.404L490.41 456.947L463.778 459.801L461.342 463.382C459.627 465.875 457.75 468.26 455.723 470.521L452.847 473.759L457.11 499.506L442.891 507.786L422.611 491.388L418.359 492.315C415.394 492.942 412.395 493.373 409.383 493.603L405.078 493.965L389.42 515.718L373.712 511.892L371.663 485.817L368.08 483.537C365.593 481.94 363.223 480.18 360.985 478.267L357.785 475.543L331.396 480.563L323.43 466.856L340.782 446.42L339.982 442.27C339.435 439.376 339.089 436.444 338.945 433.492L338.731 429.267L317.054 414.595L321.464 399.052L348.096 396.197L350.532 392.616C352.247 390.123 354.124 387.738 356.152 385.478L359.027 382.24L354.764 356.492L368.984 348.212L389.264 364.611L393.515 363.684C396.478 363.057 399.475 362.628 402.484 362.399L406.793 362.046L422.47 340.271L438.171 344.102L440.219 370.177L443.803 372.457C446.289 374.053 448.659 375.814 450.897 377.727L454.097 380.451L480.486 375.431L488.453 389.138L471.1 409.574L471.901 413.724C472.447 416.617 472.794 419.55 472.937 422.501L473.152 426.727L494.82 441.404ZM384.915 391.588C377.441 395.903 371.368 402.257 367.463 409.846C363.558 417.435 361.998 425.918 362.979 434.223C363.96 442.527 367.438 450.28 372.974 456.502C378.51 462.723 385.855 467.133 394.08 469.174C402.305 471.215 411.041 470.795 419.183 467.967C427.325 465.14 434.507 460.032 439.821 453.289C445.135 446.547 448.343 438.472 449.038 430.087C449.733 421.702 447.885 413.382 443.727 406.181C438.152 396.524 428.824 389.561 417.794 386.825C406.765 384.088 394.938 385.801 384.915 391.588ZM422.58 456.825C416.663 460.241 409.902 461.89 403.154 461.563C396.405 461.236 389.972 458.948 384.666 454.988C379.361 451.028 375.422 445.575 373.348 439.316C371.274 433.058 371.158 426.277 373.015 419.83C374.871 413.383 378.617 407.56 383.778 403.097C388.939 398.634 395.284 395.732 402.01 394.758C408.737 393.783 415.542 394.78 421.566 397.623C427.591 400.465 432.563 405.025 435.854 410.726C440.259 418.374 441.334 427.522 438.846 436.165C436.357 444.807 430.507 452.237 422.58 456.825Z"/>
</mask>
<path d="M480.744 411.804L499.389 389.863L485.245 365.583L456.906 370.971C454.372 368.798 451.686 366.801 448.867 364.992L446.66 337.006L418.835 330.212L402.031 353.578C398.611 353.844 395.206 354.337 391.839 355.053L370.075 337.448L344.871 352.12L349.45 379.779C347.155 382.338 345.033 385.04 343.097 387.867L314.501 390.935L306.676 418.473L329.96 434.24C330.12 437.59 330.513 440.918 331.135 444.201L312.485 466.135L326.629 490.416L354.969 485.028C357.503 487.2 360.188 489.197 363.008 491.006L365.215 518.993L393.031 525.791L409.844 502.42C413.264 502.155 416.669 501.662 420.036 500.945L441.8 518.551L467.003 503.878L462.424 476.219C464.719 473.66 466.842 470.958 468.777 468.132L497.374 465.063L505.199 437.525L481.919 421.766C481.759 418.416 481.366 415.088 480.744 411.804ZM494.82 441.404L490.41 456.947L463.778 459.801L461.342 463.382C459.627 465.875 457.75 468.26 455.723 470.521L452.847 473.759L457.11 499.506L442.891 507.786L422.611 491.388L418.359 492.315C415.394 492.942 412.395 493.373 409.383 493.603L405.078 493.965L389.42 515.718L373.712 511.892L371.663 485.817L368.08 483.537C365.593 481.94 363.223 480.18 360.985 478.267L357.785 475.543L331.396 480.563L323.43 466.856L340.782 446.42L339.982 442.27C339.435 439.376 339.089 436.444 338.945 433.492L338.731 429.267L317.054 414.595L321.464 399.052L348.096 396.197L350.532 392.616C352.247 390.123 354.124 387.738 356.152 385.478L359.027 382.24L354.764 356.492L368.984 348.212L389.264 364.611L393.515 363.684C396.478 363.057 399.475 362.628 402.484 362.399L406.793 362.046L422.47 340.271L438.171 344.102L440.219 370.177L443.803 372.457C446.289 374.053 448.659 375.814 450.897 377.727L454.097 380.451L480.486 375.431L488.453 389.138L471.1 409.574L471.901 413.724C472.447 416.617 472.794 419.55 472.937 422.501L473.152 426.727L494.82 441.404ZM384.915 391.588C377.441 395.903 371.368 402.257 367.463 409.846C363.558 417.435 361.998 425.918 362.979 434.223C363.96 442.527 367.438 450.28 372.974 456.502C378.51 462.723 385.855 467.133 394.08 469.174C402.305 471.215 411.041 470.795 419.183 467.967C427.325 465.14 434.507 460.032 439.821 453.289C445.135 446.547 448.343 438.472 449.038 430.087C449.733 421.702 447.885 413.382 443.727 406.181C438.152 396.524 428.824 389.561 417.794 386.825C406.765 384.088 394.938 385.801 384.915 391.588ZM422.58 456.825C416.663 460.241 409.902 461.89 403.154 461.563C396.405 461.236 389.972 458.948 384.666 454.988C379.361 451.028 375.422 445.575 373.348 439.316C371.274 433.058 371.158 426.277 373.015 419.83C374.871 413.383 378.617 407.56 383.778 403.097C388.939 398.634 395.284 395.732 402.01 394.758C408.737 393.783 415.542 394.78 421.566 397.623C427.591 400.465 432.563 405.025 435.854 410.726C440.259 418.374 441.334 427.522 438.846 436.165C436.357 444.807 430.507 452.237 422.58 456.825Z" fill="#3F51B5" stroke="black" stroke-width="2" mask="url(#path-10-inside-1_17_5)"/>
<path d="M1017.24 332.254H1104.54L1138.24 462.918L1171.78 332.254H1258.79V547H1204.59V383.23L1162.55 547H1113.48L1071.59 383.23V547H1017.24V332.254ZM1351.66 441.824L1294.68 435.818C1296.83 425.857 1299.91 418.045 1303.91 412.381C1308.01 406.619 1313.87 401.639 1321.49 397.439C1326.96 394.412 1334.48 392.068 1344.05 390.408C1353.62 388.748 1363.97 387.918 1375.1 387.918C1392.97 387.918 1407.33 388.943 1418.17 390.994C1429.01 392.947 1438.04 397.098 1445.27 403.445C1450.35 407.84 1454.35 414.09 1457.28 422.195C1460.21 430.203 1461.67 437.869 1461.67 445.193V513.895C1461.67 521.219 1462.11 526.98 1462.99 531.18C1463.97 535.281 1466.02 540.555 1469.14 547H1413.19C1410.94 542.996 1409.48 539.969 1408.79 537.918C1408.11 535.77 1407.43 532.449 1406.74 527.957C1398.93 535.477 1391.17 540.848 1383.45 544.07C1372.9 548.367 1360.65 550.516 1346.68 550.516C1328.13 550.516 1314.02 546.219 1304.35 537.625C1294.78 529.031 1289.99 518.436 1289.99 505.838C1289.99 494.021 1293.46 484.305 1300.39 476.688C1307.33 469.07 1320.12 463.406 1338.77 459.695C1361.14 455.203 1375.64 452.078 1382.28 450.32C1388.92 448.465 1395.95 446.072 1403.37 443.143C1403.37 435.818 1401.86 430.691 1398.83 427.762C1395.8 424.832 1390.48 423.367 1382.87 423.367C1373.1 423.367 1365.78 424.93 1360.89 428.055C1357.08 430.496 1354.01 435.086 1351.66 441.824ZM1403.37 473.172C1395.17 476.102 1386.62 478.689 1377.74 480.936C1365.63 484.158 1357.96 487.332 1354.74 490.457C1351.42 493.68 1349.76 497.342 1349.76 501.443C1349.76 506.131 1351.37 509.988 1354.59 513.016C1357.91 515.945 1362.75 517.41 1369.1 517.41C1375.74 517.41 1381.89 515.799 1387.55 512.576C1393.31 509.354 1397.37 505.447 1399.71 500.857C1402.15 496.17 1403.37 490.115 1403.37 482.693V473.172ZM1613.43 486.209L1670.12 492.654C1667 504.471 1661.87 514.725 1654.74 523.416C1647.61 532.01 1638.48 538.699 1627.35 543.484C1616.31 548.27 1602.25 550.662 1585.16 550.662C1568.66 550.662 1554.89 549.148 1543.85 546.121C1532.91 542.996 1523.49 538.016 1515.58 531.18C1507.67 524.246 1501.47 516.141 1496.98 506.863C1492.48 497.586 1490.24 485.281 1490.24 469.949C1490.24 453.934 1492.97 440.604 1498.44 429.959C1502.45 422.146 1507.91 415.164 1514.85 409.012C1521.78 402.762 1528.91 398.123 1536.23 395.096C1547.86 390.311 1562.75 387.918 1580.91 387.918C1606.3 387.918 1625.64 392.459 1638.92 401.541C1652.3 410.623 1661.67 423.904 1667.04 441.385L1610.94 448.855C1609.18 442.215 1605.96 437.234 1601.27 433.914C1596.68 430.496 1590.48 428.787 1582.67 428.787C1572.81 428.787 1564.8 432.352 1558.65 439.48C1552.59 446.512 1549.56 457.205 1549.56 471.561C1549.56 484.354 1552.59 494.07 1558.65 500.711C1564.7 507.352 1572.42 510.672 1581.79 510.672C1589.6 510.672 1596.15 508.67 1601.42 504.666C1606.79 500.662 1610.79 494.51 1613.43 486.209ZM1828.62 435.086H1785.4V547H1725.64V435.086H1682.43V391.58H1828.62V435.086ZM2022.56 484.012H1903.03C1904.11 493.582 1906.69 500.711 1910.79 505.398C1916.56 512.137 1924.08 515.506 1933.35 515.506C1939.21 515.506 1944.78 514.041 1950.05 511.111C1953.28 509.256 1956.74 505.984 1960.45 501.297L2019.19 506.717C2010.21 522.342 1999.37 533.572 1986.67 540.408C1973.98 547.146 1955.77 550.516 1932.04 550.516C1911.43 550.516 1895.22 547.635 1883.4 541.873C1871.59 536.014 1861.77 526.785 1853.96 514.188C1846.24 501.492 1842.39 486.6 1842.39 469.51C1842.39 445.193 1850.15 425.516 1865.68 410.477C1881.3 395.438 1902.84 387.918 1930.28 387.918C1952.54 387.918 1970.12 391.287 1983.01 398.025C1995.9 404.764 2005.72 414.529 2012.46 427.322C2019.19 440.115 2022.56 456.766 2022.56 477.273V484.012ZM1961.92 455.447C1960.75 443.924 1957.62 435.672 1952.54 430.691C1947.56 425.711 1940.97 423.221 1932.77 423.221C1923.29 423.221 1915.73 426.98 1910.06 434.5C1906.45 439.188 1904.15 446.17 1903.18 455.447H1961.92ZM2050.25 606.18V391.434H2106.06V414.432C2113.77 404.764 2120.85 398.221 2127.3 394.803C2135.99 390.213 2145.61 387.918 2156.16 387.918C2176.96 387.918 2193.02 395.877 2204.35 411.795C2215.78 427.713 2221.49 447.391 2221.49 470.828C2221.49 496.707 2215.29 516.482 2202.88 530.154C2190.48 543.729 2174.81 550.516 2155.86 550.516C2146.68 550.516 2138.29 548.953 2130.67 545.828C2123.15 542.703 2116.41 538.064 2110.45 531.912V606.18H2050.25ZM2110.01 469.656C2110.01 481.961 2112.6 491.092 2117.78 497.049C2122.95 503.006 2129.5 505.984 2137.41 505.984C2144.34 505.984 2150.15 503.152 2154.84 497.488C2159.53 491.727 2161.87 482.01 2161.87 468.338C2161.87 455.74 2159.43 446.512 2154.54 440.652C2149.66 434.695 2143.71 431.717 2136.67 431.717C2129.06 431.717 2122.71 434.695 2117.63 440.652C2112.55 446.609 2110.01 456.277 2110.01 469.656ZM2396.98 459.256L2455.13 476.834C2451.22 493.143 2445.07 506.766 2436.67 517.703C2428.28 528.641 2417.83 536.893 2405.33 542.459C2392.92 548.025 2377.1 550.809 2357.87 550.809C2334.53 550.809 2315.43 547.439 2300.59 540.701C2285.84 533.865 2273.1 521.902 2262.36 504.812C2251.62 487.723 2246.24 465.848 2246.24 439.188C2246.24 403.641 2255.67 376.346 2274.52 357.303C2293.46 338.162 2320.22 328.592 2354.79 328.592C2381.84 328.592 2403.08 334.061 2418.51 344.998C2434.04 355.936 2445.56 372.732 2453.08 395.389L2394.49 408.426C2392.44 401.883 2390.29 397.098 2388.04 394.07C2384.33 388.992 2379.79 385.086 2374.42 382.352C2369.05 379.617 2363.04 378.25 2356.4 378.25C2341.36 378.25 2329.84 384.305 2321.83 396.414C2315.78 405.398 2312.75 419.51 2312.75 438.748C2312.75 462.576 2316.36 478.934 2323.59 487.82C2330.81 496.609 2340.97 501.004 2354.06 501.004C2366.75 501.004 2376.32 497.439 2382.77 490.311C2389.31 483.182 2394.05 472.83 2396.98 459.256ZM2656.25 484.012H2536.72C2537.8 493.582 2540.38 500.711 2544.49 505.398C2550.25 512.137 2557.77 515.506 2567.04 515.506C2572.9 515.506 2578.47 514.041 2583.74 511.111C2586.97 509.256 2590.43 505.984 2594.14 501.297L2652.88 506.717C2643.9 522.342 2633.06 533.572 2620.37 540.408C2607.67 547.146 2589.46 550.516 2565.73 550.516C2545.12 550.516 2528.91 547.635 2517.09 541.873C2505.28 536.014 2495.46 526.785 2487.65 514.188C2479.94 501.492 2476.08 486.6 2476.08 469.51C2476.08 445.193 2483.84 425.516 2499.37 410.477C2514.99 395.438 2536.53 387.918 2563.97 387.918C2586.23 387.918 2603.81 391.287 2616.7 398.025C2629.59 404.764 2639.41 414.529 2646.15 427.322C2652.88 440.115 2656.25 456.766 2656.25 477.273V484.012ZM2595.61 455.447C2594.44 443.924 2591.31 435.672 2586.23 430.691C2581.25 425.711 2574.66 423.221 2566.46 423.221C2556.99 423.221 2549.42 426.98 2543.75 434.5C2540.14 439.188 2537.85 446.17 2536.87 455.447H2595.61ZM2683.94 606.18V391.434H2739.75V414.432C2747.46 404.764 2754.54 398.221 2760.99 394.803C2769.68 390.213 2779.3 387.918 2789.85 387.918C2810.65 387.918 2826.71 395.877 2838.04 411.795C2849.47 427.713 2855.18 447.391 2855.18 470.828C2855.18 496.707 2848.98 516.482 2836.58 530.154C2824.17 543.729 2808.5 550.516 2789.55 550.516C2780.38 550.516 2771.98 548.953 2764.36 545.828C2756.84 542.703 2750.1 538.064 2744.14 531.912V606.18H2683.94ZM2743.71 469.656C2743.71 481.961 2746.29 491.092 2751.47 497.049C2756.64 503.006 2763.19 505.984 2771.1 505.984C2778.03 505.984 2783.84 503.152 2788.53 497.488C2793.22 491.727 2795.56 482.01 2795.56 468.338C2795.56 455.74 2793.12 446.512 2788.24 440.652C2783.35 434.695 2777.4 431.717 2770.37 431.717C2762.75 431.717 2756.4 434.695 2751.32 440.652C2746.24 446.609 2743.71 456.277 2743.71 469.656ZM3001.08 464.236C3012.89 465.408 3022.27 469.314 3029.2 475.955C3036.23 482.596 3039.75 491.482 3039.75 502.615C3039.75 517.459 3034.87 528.592 3025.1 536.014C3015.34 543.338 2997.81 547 2972.51 547H2883.74V391.58H2979.69C2997.07 391.58 3010.31 394.9 3019.39 401.541C3028.57 408.182 3033.16 417.459 3033.16 429.373C3033.16 437.771 3030.18 445.096 3024.22 451.346C3018.27 457.498 3010.55 461.6 3001.08 463.65V464.236ZM2943.36 450.76H2958.45C2968.41 450.76 2973.39 446.219 2973.39 437.137C2973.39 429.812 2968.12 426.15 2957.57 426.15H2943.36V450.76ZM2943.36 510.379H2962.99C2967.88 510.379 2971.83 509.256 2974.86 507.01C2977.88 504.764 2979.4 501.492 2979.4 497.195C2979.4 487.82 2973.93 483.133 2962.99 483.133H2943.36V510.379ZM3242.04 547H3185.65V470.535L3127.05 547H3070.37V391.58H3126.76V469.07L3185.94 391.58H3242.04V547ZM3396.15 486.209L3452.84 492.654C3449.71 504.471 3444.58 514.725 3437.46 523.416C3430.33 532.01 3421.2 538.699 3410.06 543.484C3399.03 548.27 3384.96 550.662 3367.88 550.662C3351.37 550.662 3337.6 549.148 3326.57 546.121C3315.63 542.996 3306.21 538.016 3298.29 531.18C3290.38 524.246 3284.18 516.141 3279.69 506.863C3275.2 497.586 3272.95 485.281 3272.95 469.949C3272.95 453.934 3275.69 440.604 3281.16 429.959C3285.16 422.146 3290.63 415.164 3297.56 409.012C3304.5 402.762 3311.62 398.123 3318.95 395.096C3330.57 390.311 3345.46 387.918 3363.63 387.918C3389.02 387.918 3408.35 392.459 3421.63 401.541C3435.01 410.623 3444.39 423.904 3449.76 441.385L3393.66 448.855C3391.9 442.215 3388.68 437.234 3383.99 433.914C3379.4 430.496 3373.2 428.787 3365.38 428.787C3355.52 428.787 3347.51 432.352 3341.36 439.48C3335.31 446.512 3332.28 457.205 3332.28 471.561C3332.28 484.354 3335.31 494.07 3341.36 500.711C3347.42 507.352 3355.13 510.672 3364.51 510.672C3372.32 510.672 3378.86 508.67 3384.13 504.666C3389.51 500.662 3393.51 494.51 3396.15 486.209Z" fill="#3F51B5"/>
</svg>
