<svg width="706" height="778" viewBox="0 0 706 778" fill="none" xmlns="http://www.w3.org/2000/svg">
<path d="M597.898 357.702L597.929 357.759L597.945 357.822L598.47 359.922L598.485 359.982V360.043C598.485 362.769 596.336 364.918 593.61 364.918H391.46V398.918H600.96C620.107 398.918 635.46 383.394 635.46 364.418C635.46 358.38 633.908 352.687 631.321 347.858C631.321 347.857 631.32 347.855 631.319 347.854L607.523 304.986L607.398 304.761L607.508 304.529L670.508 171.704L670.644 171.418H670.96H705.46V137.418H649.053L632.738 172.131L632.603 172.418H632.285H373.46C364.111 172.418 356.46 180.069 356.46 189.418C356.46 192.291 357.304 195.187 358.509 197.947L421.147 311.15C427.013 321.674 438.4 328.918 451.335 328.918H581.71H582.005L582.148 329.177L597.898 357.702ZM575.163 294.631L575.028 294.918H574.71H548.46H547.96V294.418V259.418V258.918H548.46H591.16H591.948L591.613 259.631L575.163 294.631ZM530.96 258.918H531.46V259.418V294.418V294.918H530.96H478.46H477.96V294.418V259.418V258.918H478.46H530.96ZM478.46 242.418H477.96V241.918V206.918V206.418H478.46H530.96H531.46V206.918V241.918V242.418H530.96H478.46ZM423.598 259.661L423.186 258.918H424.035H460.96H461.46V259.418V294.418V294.918H460.96H443.46H443.166L443.023 294.661L423.598 259.661ZM394.373 207.161L393.961 206.418H394.81H460.96H461.46V206.918V241.918V242.418H460.96H414.235H413.941L413.798 242.161L394.373 207.161ZM616.01 206.418H616.798L616.463 207.131L600.013 242.131L599.878 242.418H599.56H548.46H547.96V241.918V206.918V206.418H548.46H616.01ZM391.46 451.918C391.46 471.067 406.811 486.418 425.96 486.418C445.107 486.418 460.46 470.894 460.46 451.918C460.46 432.769 445.109 417.418 425.96 417.418C406.813 417.418 391.46 432.943 391.46 451.918ZM635.46 451.918C635.46 432.769 620.109 417.418 600.96 417.418C581.811 417.418 566.46 432.769 566.46 451.918C566.46 471.067 581.811 486.418 600.96 486.418C620.107 486.418 635.46 470.894 635.46 451.918Z" fill="#007D8C" stroke="black"/>
<rect x="0.720366" y="171.276" width="339.563" height="699" rx="47.2022" transform="rotate(-30 0.720366 171.276)" fill="#007D8C" stroke="black"/>
<rect x="6.56946" y="172.487" width="330.99" height="691.054" rx="50" transform="rotate(-30 6.56946 172.487)" fill="#007D8C"/>
<rect x="19.199" y="174.233" width="311.39" height="674.574" rx="41" transform="rotate(-30 19.199 174.233)" fill="#E4E4E4"/>
<rect x="415.984" y="706.957" width="156.55" height="5.59105" rx="2.79553" transform="rotate(-30 415.984 706.957)" fill="#007D8C"/>
<path d="M93.2934 130.365L215.312 59.9174L221.835 71.2158C226.317 78.9787 223.657 88.9051 215.894 93.387L121.988 147.604C114.225 152.086 104.298 149.426 99.8166 141.663L93.2934 130.365Z" fill="#007D8C"/>
<rect x="134.195" y="116.879" width="54.9824" height="5.74443" rx="2.12684" transform="rotate(-30 134.195 116.879)" fill="#E4E4E4"/>
<circle cx="119.731" cy="128.937" r="6.56506" transform="rotate(-30 119.731 128.937)" fill="#E4E4E4"/>
<mask id="path-9-inside-1_17_5" fill="white">
<path d="M376.744 337.805L395.389 315.863L381.245 291.583L352.906 296.971C350.372 294.799 347.686 292.801 344.867 290.992L342.66 263.006L314.835 256.212L298.031 279.579C294.611 279.844 291.206 280.337 287.839 281.053L266.075 263.448L240.871 278.12L245.45 305.779C243.155 308.338 241.033 311.04 239.097 313.867L210.501 316.935L202.676 344.473L225.96 360.24C226.12 363.59 226.513 366.918 227.135 370.202L208.485 392.135L222.629 416.416L250.969 411.028C253.503 413.2 256.188 415.197 259.008 417.006L261.215 444.993L289.031 451.791L305.844 428.42C309.264 428.155 312.669 427.662 316.036 426.946L337.8 444.551L363.003 429.878L358.424 402.22C360.719 399.661 362.842 396.959 364.777 394.132L393.374 391.063L401.199 363.525L377.919 347.767C377.759 344.416 377.366 341.088 376.744 337.805ZM390.82 367.404L386.41 382.947L359.778 385.801L357.342 389.382C355.627 391.876 353.75 394.26 351.723 396.521L348.847 399.759L353.11 425.506L338.891 433.786L318.611 417.388L314.359 418.315C311.394 418.943 308.395 419.373 305.383 419.604L301.078 419.965L285.42 441.718L269.712 437.892L267.663 411.817L264.08 409.537C261.593 407.94 259.223 406.18 256.985 404.267L253.785 401.543L227.396 406.563L219.43 392.856L236.782 372.42L235.982 368.27C235.435 365.377 235.089 362.444 234.945 359.492L234.731 355.267L213.054 340.595L217.464 325.052L244.096 322.197L246.532 318.616C248.247 316.123 250.124 313.738 252.152 311.478L255.027 308.24L250.764 282.492L264.984 274.212L285.264 290.611L289.515 289.684C292.478 289.057 295.475 288.628 298.484 288.4L302.793 288.046L318.47 266.271L334.171 270.102L336.219 296.177L339.803 298.457C342.289 300.054 344.659 301.814 346.897 303.727L350.097 306.451L376.486 301.431L384.453 315.138L367.1 335.574L367.901 339.724C368.447 342.617 368.794 345.55 368.937 348.502L369.152 352.727L390.82 367.404ZM280.915 317.588C273.441 321.903 267.368 328.257 263.463 335.846C259.558 343.435 257.998 351.918 258.979 360.223C259.96 368.527 263.438 376.28 268.974 382.502C274.51 388.723 281.855 393.133 290.08 395.174C298.305 397.215 307.041 396.795 315.183 393.967C323.325 391.14 330.507 386.032 335.821 379.289C341.135 372.547 344.343 364.472 345.038 356.087C345.733 347.702 343.885 339.383 339.727 332.181C334.152 322.524 324.824 315.562 313.794 312.825C302.765 310.088 290.938 311.801 280.915 317.588ZM318.58 382.825C312.663 386.241 305.902 387.89 299.154 387.563C292.405 387.236 285.972 384.948 280.666 380.988C275.361 377.028 271.422 371.575 269.348 365.316C267.274 359.058 267.158 352.277 269.015 345.83C270.871 339.383 274.617 333.56 279.778 329.097C284.939 324.634 291.284 321.732 298.01 320.758C304.737 319.783 311.542 320.78 317.566 323.623C323.591 326.465 328.563 331.025 331.854 336.727C336.259 344.374 337.334 353.522 334.846 362.165C332.357 370.807 326.507 378.237 318.58 382.825Z"/>
</mask>
<path d="M376.744 337.805L395.389 315.863L381.245 291.583L352.906 296.971C350.372 294.799 347.686 292.801 344.867 290.992L342.66 263.006L314.835 256.212L298.031 279.579C294.611 279.844 291.206 280.337 287.839 281.053L266.075 263.448L240.871 278.12L245.45 305.779C243.155 308.338 241.033 311.04 239.097 313.867L210.501 316.935L202.676 344.473L225.96 360.24C226.12 363.59 226.513 366.918 227.135 370.202L208.485 392.135L222.629 416.416L250.969 411.028C253.503 413.2 256.188 415.197 259.008 417.006L261.215 444.993L289.031 451.791L305.844 428.42C309.264 428.155 312.669 427.662 316.036 426.946L337.8 444.551L363.003 429.878L358.424 402.22C360.719 399.661 362.842 396.959 364.777 394.132L393.374 391.063L401.199 363.525L377.919 347.767C377.759 344.416 377.366 341.088 376.744 337.805ZM390.82 367.404L386.41 382.947L359.778 385.801L357.342 389.382C355.627 391.876 353.75 394.26 351.723 396.521L348.847 399.759L353.11 425.506L338.891 433.786L318.611 417.388L314.359 418.315C311.394 418.943 308.395 419.373 305.383 419.604L301.078 419.965L285.42 441.718L269.712 437.892L267.663 411.817L264.08 409.537C261.593 407.94 259.223 406.18 256.985 404.267L253.785 401.543L227.396 406.563L219.43 392.856L236.782 372.42L235.982 368.27C235.435 365.377 235.089 362.444 234.945 359.492L234.731 355.267L213.054 340.595L217.464 325.052L244.096 322.197L246.532 318.616C248.247 316.123 250.124 313.738 252.152 311.478L255.027 308.24L250.764 282.492L264.984 274.212L285.264 290.611L289.515 289.684C292.478 289.057 295.475 288.628 298.484 288.4L302.793 288.046L318.47 266.271L334.171 270.102L336.219 296.177L339.803 298.457C342.289 300.054 344.659 301.814 346.897 303.727L350.097 306.451L376.486 301.431L384.453 315.138L367.1 335.574L367.901 339.724C368.447 342.617 368.794 345.55 368.937 348.502L369.152 352.727L390.82 367.404ZM280.915 317.588C273.441 321.903 267.368 328.257 263.463 335.846C259.558 343.435 257.998 351.918 258.979 360.223C259.96 368.527 263.438 376.28 268.974 382.502C274.51 388.723 281.855 393.133 290.08 395.174C298.305 397.215 307.041 396.795 315.183 393.967C323.325 391.14 330.507 386.032 335.821 379.289C341.135 372.547 344.343 364.472 345.038 356.087C345.733 347.702 343.885 339.383 339.727 332.181C334.152 322.524 324.824 315.562 313.794 312.825C302.765 310.088 290.938 311.801 280.915 317.588ZM318.58 382.825C312.663 386.241 305.902 387.89 299.154 387.563C292.405 387.236 285.972 384.948 280.666 380.988C275.361 377.028 271.422 371.575 269.348 365.316C267.274 359.058 267.158 352.277 269.015 345.83C270.871 339.383 274.617 333.56 279.778 329.097C284.939 324.634 291.284 321.732 298.01 320.758C304.737 319.783 311.542 320.78 317.566 323.623C323.591 326.465 328.563 331.025 331.854 336.727C336.259 344.374 337.334 353.522 334.846 362.165C332.357 370.807 326.507 378.237 318.58 382.825Z" fill="#007D8C" stroke="black" stroke-width="2" mask="url(#path-9-inside-1_17_5)"/>
</svg>
